<svg id="Favicon" width="1024" height="1024" viewBox="0 0 1024 1024" xmlns="http://www.w3.org/2000/svg">
  <g id="Logo">
    <path
      d="m 267,107.25 h 210 q 99.5,0 150.5,15.5 51.5,15.5 83,63 31.5,47 31.5,152 0,71 -22.5,99 -22,28 -87.5,43 73,16.5 99,55 26,38 26,117 v 75 q 0,82 -19,121.5 -18.5,39.5 -59.5,54 -41,14.5 -168,14.5 H 267 Z m 210.5,138.5 v 180 q 13.5,-0.5 21,-0.5 31,0 39.5,-15 8.5,-15.5 8.5,-87.5 0,-38 -7,-53 -7,-15.5 -18.5,-19.5 -11,-4 -43.5,-4.5 z m 0,306 v 226.5 q 44.5,-1.5 56.5,-14 12.5,-12.5 12.5,-61.5 v -75.5 q 0,-52 -11,-63 -11,-11 -58,-12.5 z"
      id="Black-B"
      style="fill:#1a1a1a"
      aria-label="Black-B"
    />
    <path
      d="m 267,107.25 h 200.15625 q 94.83594,0 143.44531,14.77344 49.08594,14.77343 79.10938,60.04687 30.02343,44.79688 30.02343,144.875 0,67.67188 -21.44531,94.35938 -20.96875,26.6875 -83.39844,40.98437 69.57813,15.72656 94.35938,52.42188 24.78125,36.21875 24.78125,111.51562 v 71.48438 q 0,78.15625 -18.10938,115.80468 -17.63281,37.64844 -56.71093,51.46875 -39.07813,13.82032 -160.125,13.82032 H 267 Z m 200.63281,132.00781 v 171.5625 q 12.86719,-0.47656 20.01563,-0.47656 29.54687,0 37.64843,-14.29688 8.10157,-14.77343 8.10157,-83.39843 0,-36.21875 -6.67188,-50.51563 -6.67187,-14.77344 -17.63281,-18.58594 -10.48438,-3.8125 -41.46094,-4.28906 z m 0,291.65625 v 215.88281 q 42.41406,-1.42968 53.85156,-13.34375 11.91407,-11.91406 11.91407,-58.61718 V 602.875 q 0,-49.5625 -10.48438,-60.04688 -10.48437,-10.48437 -55.28125,-11.91406 z"
      id="Red-B"
      style="fill:#d40000"
      aria-label="Red-B"
    />
  </g>
</svg>
